<svg width="1200" height="900" viewBox="0 0 1200 900" fill="none" xmlns="http://www.w3.org/2000/svg">
  <rect width="1200" height="900" fill="#FBFAF7"/>
  <rect x="150" y="112" width="390" height="650" fill="#FFFFFF" stroke="#D9D0C4" stroke-width="3"/>
  <rect x="540" y="112" width="390" height="650" fill="#F0EDE7" stroke="#D9D0C4" stroke-width="3"/>
  <path d="M150 112L300 40H690L540 112H150Z" fill="#E6DED2" stroke="#D9D0C4" stroke-width="3"/>
  <path d="M540 112L690 40H1080L930 112H540Z" fill="#DCE7E5" stroke="#D9D0C4" stroke-width="3"/>
  <text x="220" y="250" fill="#151515" font-family="Arial, sans-serif" font-size="72" font-weight="700">Producto</text>
  <rect x="220" y="304" width="230" height="16" fill="#2F5F68"/>
  <rect x="220" y="388" width="250" height="250" fill="#193F47"/>
  <circle cx="345" cy="513" r="74" fill="#F7F3EC"/>
  <rect x="610" y="206" width="240" height="16" fill="#B35C3E"/>
  <rect x="610" y="266" width="210" height="16" fill="#151515"/>
  <rect x="610" y="326" width="250" height="16" fill="#151515"/>
  <rect x="610" y="386" width="180" height="16" fill="#151515"/>
  <rect x="610" y="620" width="250" height="54" fill="#64724C"/>
</svg>
